<svg xmlns="http://www.w3.org/2000/svg" xmlns:xlink="http://www.w3.org/1999/xlink" width="500" zoomAndPan="magnify" viewBox="0 0 375 374.999991" height="500" preserveAspectRatio="xMidYMid meet" version="1.0"><defs><g/><clipPath id="1e865d931a"><path d="M 91.265625 5 L 290.765625 5 L 290.765625 367.84375 L 91.265625 367.84375 Z M 91.265625 5 " clip-rule="nonzero"/></clipPath><clipPath id="cbdd4ee838"><path d="M 233 5 L 290.765625 5 L 290.765625 129 L 233 129 Z M 233 5 " clip-rule="nonzero"/></clipPath><clipPath id="e1c327b742"><path d="M 130 336 L 242 336 L 242 367.84375 L 130 367.84375 Z M 130 336 " clip-rule="nonzero"/></clipPath><clipPath id="a78e4fb2b8"><path d="M 91.265625 143 L 284 143 L 284 163 L 91.265625 163 Z M 91.265625 143 " clip-rule="nonzero"/></clipPath></defs><g fill="#000000" fill-opacity="1"><g transform="translate(184.307292, 195.374987)"><g><path d="M 4.765625 -2.5625 L 4.9375 -2.3125 C 4.5625 -0.863281 3.929688 0.851562 3.046875 2.84375 L 0.671875 2.84375 C 1.140625 0.9375 1.503906 -0.863281 1.765625 -2.5625 Z M 1.25 -10.40625 C 1.25 -11.007812 1.410156 -11.460938 1.734375 -11.765625 C 2.054688 -12.078125 2.523438 -12.234375 3.140625 -12.234375 C 3.742188 -12.234375 4.207031 -12.078125 4.53125 -11.765625 C 4.851562 -11.453125 5.015625 -11 5.015625 -10.40625 C 5.015625 -9.832031 4.847656 -9.382812 4.515625 -9.0625 C 4.179688 -8.738281 3.722656 -8.578125 3.140625 -8.578125 C 2.546875 -8.578125 2.082031 -8.734375 1.75 -9.046875 C 1.414062 -9.367188 1.25 -9.820312 1.25 -10.40625 Z M 1.25 -10.40625 "/></g></g></g><g clip-path="url(#1e865d931a)"><path fill="#95c11f" d="M 244.75 128.277344 C 244.765625 128.292969 244.78125 128.304688 244.789062 128.320312 C 244.789062 128.320312 244.796875 128.324219 244.796875 128.324219 L 272.269531 54.71875 C 272.269531 54.71875 282.324219 29.34375 289.625 15.324219 C 290.40625 13.824219 290.027344 12.148438 288.847656 11.007812 C 288.527344 10.699219 288.148438 10.425781 287.71875 10.210938 C 287.433594 10.070312 287.125 9.949219 286.792969 9.859375 L 282.59375 8.699219 L 272.28125 5.859375 C 269.382812 5.058594 266.253906 6.40625 265.28125 8.886719 C 260.46875 21.164062 256.019531 48.886719 256.019531 48.886719 L 233.113281 114.367188 C 231.757812 112.640625 230.332031 110.96875 228.695312 109.4375 C 226.324219 107.210938 223.394531 105.308594 220.160156 104.214844 C 220.164062 104.210938 220.164062 104.210938 220.167969 104.203125 C 218.453125 103.617188 216.65625 103.25 214.792969 103.222656 C 208.3125 103.113281 202.335938 106.800781 195.855469 106.628906 C 190.167969 106.484375 185.214844 103.421875 179.808594 101.898438 C 166.828125 98.21875 152.726562 103.6875 141.707031 110.640625 C 135.058594 114.839844 128.203125 120.023438 122.105469 125.789062 C 122.082031 125.78125 122.054688 125.777344 122.03125 125.773438 C 116.023438 131.453125 110.796875 137.726562 107.386719 144.300781 C 97.207031 146.1875 91.265625 148.449219 91.265625 150.886719 C 91.265625 151.5625 91.722656 152.214844 92.59375 152.863281 C 125.472656 178.261719 139.46875 203.78125 125.707031 229.5 C 115.378906 254.300781 115.246094 278.601562 129.800781 302.195312 C 134.75 310.121094 140.449219 316.160156 146.539062 320.703125 C 138.679688 323.582031 130.183594 328.703125 130.195312 335.539062 C 130.265625 335.839844 130.34375 336.144531 130.425781 336.441406 C 130.273438 337.191406 130.191406 337.953125 130.195312 338.742188 C 133.371094 354.96875 148.144531 366.113281 184.710938 367.6875 C 219.320312 367.140625 241.765625 353.75 241.765625 338.742188 C 241.765625 338.179688 241.726562 337.625 241.648438 337.089844 C 241.722656 336.574219 241.765625 336.054688 241.765625 335.539062 C 241.785156 329.265625 234.980469 324.664062 226.84375 321.207031 C 257.066406 296.535156 262.585938 265.5 248.832031 229.507812 C 245.324219 223.207031 244.042969 216.519531 244.601562 209.640625 C 244.601562 209.617188 244.605469 209.585938 244.609375 209.5625 C 244.640625 209.191406 244.679688 208.820312 244.71875 208.453125 C 244.726562 208.363281 244.738281 208.28125 244.746094 208.191406 C 244.78125 207.878906 244.820312 207.566406 244.863281 207.253906 C 244.882812 207.113281 244.90625 206.964844 244.925781 206.824219 C 244.964844 206.570312 245.003906 206.316406 245.050781 206.0625 C 245.082031 205.859375 245.121094 205.660156 245.15625 205.460938 C 245.195312 205.257812 245.230469 205.058594 245.269531 204.859375 C 245.320312 204.605469 245.378906 204.347656 245.429688 204.09375 C 245.460938 203.949219 245.496094 203.800781 245.523438 203.660156 C 245.59375 203.351562 245.671875 203.042969 245.742188 202.742188 C 245.769531 202.648438 245.789062 202.554688 245.8125 202.460938 C 245.90625 202.105469 245.996094 201.742188 246.101562 201.386719 C 246.109375 201.347656 246.121094 201.304688 246.132812 201.265625 C 250.71875 184.964844 264.378906 168.058594 282.105469 152.992188 C 283.09375 152.308594 283.609375 151.605469 283.609375 150.886719 C 283.609375 148.085938 275.765625 145.511719 262.644531 143.484375 C 260.925781 141.105469 258.035156 139.074219 255.453125 137.253906 C 251.285156 134.324219 247.445312 131.0625 243.960938 127.535156 L 243.976562 127.492188 C 244.234375 127.753906 244.488281 128.023438 244.75 128.277344 Z M 244.75 128.277344 " fill-opacity="1" fill-rule="nonzero"/></g><path fill="#87501e" d="M 282.257812 152.863281 C 274.636719 158.480469 235.097656 162.761719 187.4375 162.761719 C 139.382812 162.761719 99.5625 158.40625 92.414062 152.71875 C 125.421875 178.164062 139.496094 203.734375 125.707031 229.5 C 115.378906 254.300781 115.246094 278.601562 129.800781 302.195312 C 159.46875 349.683594 215.742188 329.75 224.949219 322.710938 C 256.824219 297.800781 262.859375 266.230469 248.820312 229.5 C 235.71875 205.96875 253.761719 177.027344 282.257812 152.863281 Z M 282.257812 152.863281 " fill-opacity="1" fill-rule="nonzero"/><g clip-path="url(#cbdd4ee838)"><path fill="#9d9d9c" d="M 286.792969 9.859375 L 272.28125 5.859375 C 269.382812 5.058594 266.253906 6.40625 265.28125 8.886719 C 260.46875 21.164062 256.019531 48.886719 256.019531 48.886719 L 233.109375 114.375 C 234.753906 116.472656 236.296875 118.644531 237.945312 120.742188 C 240.027344 123.398438 242.34375 125.910156 244.789062 128.320312 L 272.265625 54.710938 C 272.265625 54.710938 282.320312 29.339844 289.621094 15.320312 C 290.757812 13.140625 289.441406 10.589844 286.792969 9.859375 Z M 286.792969 9.859375 " fill-opacity="1" fill-rule="nonzero"/></g><path fill="#87501e" d="M 264.070312 146.648438 C 264.179688 147.234375 264.214844 147.835938 264.128906 148.460938 C 247.164062 149.144531 230.179688 149.507812 213.195312 149.546875 C 195.035156 149.585938 176.878906 149.257812 158.726562 148.75 C 149.902344 148.5 141.078125 148.210938 132.257812 147.898438 C 125.066406 147.644531 114.699219 148.679688 107.746094 146.816406 C 106.71875 147.121094 106.171875 147.433594 106.171875 147.757812 C 106.171875 150.371094 142.015625 152.496094 186.230469 152.496094 C 230.445312 152.496094 266.289062 150.371094 266.289062 147.757812 C 266.289062 147.371094 265.507812 147 264.070312 146.648438 Z M 264.070312 146.648438 " fill-opacity="1" fill-rule="nonzero"/><path fill="#87501e" d="M 226.835938 321.203125 C 226.214844 321.707031 225.589844 322.214844 224.949219 322.710938 C 217.277344 328.574219 176.945312 343.382812 146.539062 320.703125 C 138.679688 323.582031 130.183594 328.703125 130.195312 335.539062 C 133.371094 349.242188 148.144531 358.652344 184.710938 359.980469 C 219.320312 359.515625 241.765625 348.210938 241.765625 335.539062 C 241.785156 329.257812 234.972656 324.660156 226.835938 321.203125 Z M 226.835938 321.203125 " fill-opacity="1" fill-rule="nonzero"/><path fill="#77962b" d="M 264.128906 148.460938 C 264.734375 143.792969 259.683594 140.226562 255.453125 137.253906 C 248.722656 132.527344 242.800781 126.941406 237.945312 120.746094 C 234.945312 116.917969 232.320312 112.835938 228.695312 109.4375 C 226.199219 107.09375 223.085938 105.097656 219.648438 104.039062 C 215.289062 108.214844 212.347656 113.390625 208.019531 117.613281 C 197.09375 128.261719 178.996094 130.839844 162.480469 130.628906 C 148.785156 130.453125 135.230469 128.765625 122.03125 125.773438 C 115.371094 132.066406 109.671875 139.09375 106.34375 146.4375 C 113.230469 148.875 124.585938 147.625 132.261719 147.898438 C 141.082031 148.210938 149.90625 148.503906 158.730469 148.75 C 176.882812 149.257812 195.039062 149.585938 213.203125 149.546875 C 230.179688 149.507812 247.164062 149.144531 264.128906 148.460938 Z M 264.128906 148.460938 " fill-opacity="1" fill-rule="nonzero"/><path fill="#ca9e67" d="M 207.429688 349.3125 C 202.042969 349.839844 195.945312 349.644531 192.046875 352.886719 C 200.300781 355.566406 209.472656 352.972656 217.769531 350.394531 C 223.757812 348.53125 230.152344 346.398438 233.660156 341.835938 C 234.871094 340.257812 235.507812 337.117188 232.484375 337.972656 C 230.703125 338.476562 228.148438 341.988281 226.421875 343.042969 C 220.84375 346.464844 214.238281 348.640625 207.429688 349.3125 Z M 207.429688 349.3125 " fill-opacity="1" fill-rule="nonzero"/><g clip-path="url(#e1c327b742)"><path fill="#ca9e67" d="M 184.710938 359.980469 C 148.949219 358.679688 134.039062 349.65625 130.425781 336.4375 C 130.273438 337.1875 130.195312 337.953125 130.195312 338.742188 C 133.371094 354.96875 148.144531 366.113281 184.710938 367.6875 C 219.320312 367.140625 241.765625 353.75 241.765625 338.742188 C 241.765625 338.179688 241.726562 337.625 241.648438 337.082031 C 239.90625 349.117188 217.902344 359.535156 184.710938 359.980469 Z M 184.710938 359.980469 " fill-opacity="1" fill-rule="nonzero"/></g><path fill="#ca9e67" d="M 235.355469 203.835938 C 225.445312 208.304688 239.730469 248.046875 239.976562 256.703125 C 240.695312 281.621094 222.828125 306.214844 196.457031 316.59375 C 192.539062 318.140625 188.179688 319.589844 185.9375 322.75 C 191.613281 324.785156 198.148438 323.191406 203.726562 320.976562 C 224.371094 312.78125 240.007812 295.839844 244.589844 276.695312 C 249.96875 254.214844 240.777344 231.3125 237.160156 208.570312 C 236.886719 206.84375 236.449219 205.28125 235.355469 203.835938 Z M 235.355469 203.835938 " fill-opacity="1" fill-rule="nonzero"/><g clip-path="url(#a78e4fb2b8)"><path fill="#ca9e67" d="M 262.644531 143.484375 C 263.363281 144.476562 263.875 145.527344 264.082031 146.648438 C 265.523438 147.003906 266.289062 147.375 266.289062 147.757812 C 266.289062 150.371094 230.445312 152.496094 186.230469 152.496094 C 142.015625 152.496094 106.171875 150.371094 106.171875 147.757812 C 106.171875 147.445312 106.683594 147.140625 107.652344 146.847656 C 107.203125 146.726562 106.761719 146.589844 106.34375 146.441406 C 106.664062 145.726562 107.023438 145.011719 107.386719 144.304688 C 97.207031 146.191406 91.265625 148.457031 91.265625 150.890625 C 91.265625 157.453125 134.320312 162.773438 187.4375 162.773438 C 240.554688 162.773438 283.609375 157.453125 283.609375 150.890625 C 283.609375 148.085938 275.765625 145.511719 262.644531 143.484375 Z M 262.644531 143.484375 " fill-opacity="1" fill-rule="nonzero"/></g><path fill="#ca9e67" d="M 144.960938 321.308594 C 149.792969 327.585938 164.652344 334.605469 187.335938 334.605469 C 209.96875 334.605469 224.3125 328.242188 228.601562 321.980469 C 227.335938 321.332031 228.199219 321.777344 226.835938 321.195312 C 226.214844 321.699219 225.589844 322.207031 224.949219 322.707031 C 217.277344 328.570312 176.945312 343.375 146.539062 320.699219 C 144.757812 321.359375 146.703125 320.433594 144.960938 321.308594 Z M 144.960938 321.308594 " fill-opacity="1" fill-rule="nonzero"/></svg>